<svg width="79" height="28" viewBox="0 0 79 28" fill="none" xmlns="http://www.w3.org/2000/svg">
<path d="M72.4369 23.2254H62.4708C59.3108 23.2254 56.799 20.7168 56.799 17.5607V7.60694C56.799 4.45087 59.3108 1.9422 62.4708 1.9422H72.4369C75.5969 1.9422 78.1087 4.45087 78.1087 7.60694V17.5607C78.1087 20.6358 75.5159 23.2254 72.4369 23.2254Z" fill="#D72685"/>
<path d="M72.2749 11.5723C74.2886 11.5723 75.921 9.94185 75.921 7.93064C75.921 5.91942 74.2886 4.28902 72.2749 4.28902C70.2612 4.28902 68.6287 5.91942 68.6287 7.93064C68.6287 9.94185 70.2612 11.5723 72.2749 11.5723Z" fill="#E3EEC6"/>
<path d="M72.2749 20.7168C74.2886 20.7168 75.921 19.0864 75.921 17.0752C75.921 15.0639 74.2886 13.4335 72.2749 13.4335C70.2612 13.4335 68.6287 15.0639 68.6287 17.0752C68.6287 19.0864 70.2612 20.7168 72.2749 20.7168Z" fill="#C7E9F4"/>
<path d="M62.7949 11.5723C64.8086 11.5723 66.441 9.94185 66.441 7.93064C66.441 5.91942 64.8086 4.28902 62.7949 4.28902C60.7812 4.28902 59.1487 5.91942 59.1487 7.93064C59.1487 9.94185 60.7812 11.5723 62.7949 11.5723Z" fill="#FDD7CA"/>
<path d="M62.7949 20.7168C64.8086 20.7168 66.441 19.0864 66.441 17.0752C66.441 15.0639 64.8086 13.4335 62.7949 13.4335C60.7812 13.4335 59.1487 15.0639 59.1487 17.0752C59.1487 19.0864 60.7812 20.7168 62.7949 20.7168Z" fill="#FFF9B8"/>
<path d="M50.0738 12.0578C51.3268 12.0578 52.3426 11.0433 52.3426 9.79191C52.3426 8.54049 51.3268 7.52602 50.0738 7.52602C48.8209 7.52602 47.8051 8.54049 47.8051 9.79191C47.8051 11.0433 48.8209 12.0578 50.0738 12.0578Z" fill="#D72685"/>
<path d="M50.0738 6.47399C51.3268 6.47399 52.3426 5.45952 52.3426 4.2081C52.3426 2.95668 51.3268 1.9422 50.0738 1.9422C48.8209 1.9422 47.8051 2.95668 47.8051 4.2081C47.8051 5.45952 48.8209 6.47399 50.0738 6.47399Z" fill="#D72685"/>
<path d="M44.402 6.47399C45.655 6.47399 46.6708 5.45952 46.6708 4.2081C46.6708 2.95668 45.655 1.9422 44.402 1.9422C43.1491 1.9422 42.1333 2.95668 42.1333 4.2081C42.1333 5.45952 43.1491 6.47399 44.402 6.47399Z" fill="#D72685"/>
<path d="M3.16 12.0578C4.41298 12.0578 5.42872 11.0433 5.42872 9.79191C5.42872 8.54049 4.41298 7.52602 3.16 7.52602C1.90702 7.52602 0.891281 8.54049 0.891281 9.79191C0.891281 11.0433 1.90702 12.0578 3.16 12.0578Z" fill="#D72685"/>
<path d="M9.88513 23.2254H9.8041C8.58872 23.2254 7.61641 22.2543 7.61641 21.0405V4.12717C7.61641 2.9133 8.58872 1.9422 9.8041 1.9422H9.88513C11.1005 1.9422 12.0728 2.9133 12.0728 4.12717V21.0405C12.0728 22.2543 11.1005 23.2254 9.88513 23.2254Z" fill="#D72685"/>
<path d="M3.24103 26.5433H3.07897C1.86359 26.5433 0.891281 25.5722 0.891281 24.3584V16.4277C0.891281 15.2139 1.86359 14.2428 3.07897 14.2428H3.24103C4.45641 14.2428 5.42872 15.2139 5.42872 16.4277V24.3584C5.42872 25.5722 4.37538 26.5433 3.24103 26.5433Z" fill="#D72685"/>
<path d="M28.9262 14.8093C28.9262 10.763 25.6851 7.52602 21.6338 7.52602C17.5826 7.52602 14.3415 10.763 14.3415 14.8093C14.3415 18.8555 17.5826 22.0925 21.6338 22.0925C22.6062 22.0925 23.5785 21.8497 24.4697 21.526V24.3584C24.4697 25.5723 25.442 26.6243 26.7385 26.6243C28.0349 26.6243 29.0072 25.6532 29.0072 24.3584V15.3757C29.0072 15.2948 29.0072 15.2139 29.0072 15.133C28.8451 15.052 28.9262 14.8902 28.9262 14.8093ZM21.6338 17.6416C20.0944 17.6416 18.7979 16.4277 18.7979 14.8093C18.7979 13.2717 20.0133 11.9769 21.6338 11.9769C23.2544 11.9769 24.4697 13.1908 24.4697 14.8093C24.3887 16.3468 23.1733 17.6416 21.6338 17.6416Z" fill="#D72685"/>
<path d="M50.0738 18.6936H38.8113H38.5682C37.1097 18.6936 35.8944 17.4798 35.8133 16.104V15.1329V4.12716C35.8133 2.91329 34.841 1.86127 33.5446 1.86127C32.3292 1.86127 31.2759 2.91329 31.2759 4.12716V16.104C31.2759 16.185 31.2759 16.2659 31.2759 16.3468C31.2759 16.4277 31.2759 16.8324 31.2759 16.9133C31.681 20.3931 34.922 23.2254 38.1631 23.2254H38.001H38.2441C38.3251 23.2254 38.7303 23.2254 38.8113 23.2254H50.0738C51.2892 23.2254 52.3426 22.1734 52.3426 20.9595C52.2615 19.7457 51.2892 18.6936 50.0738 18.6936Z" fill="#D72685"/>
</svg>
